<svg width="520" height="302" viewBox="0 0 520 302" fill="none" xmlns="http://www.w3.org/2000/svg">
<path d="M147.047 193.233C141.047 198.433 131.547 202.733 127.547 204.233C123.214 205.066 113.447 207.133 109.047 208.733C104.647 210.333 100.547 210.733 99.0473 210.733C95.3807 210.899 87.4473 211.833 85.0473 214.233C82.6473 216.633 80.714 221.899 80.0473 224.233C78.8807 227.233 76.6473 234.633 77.0473 240.233C77.4473 245.833 78.5473 250.233 79.0473 251.733C79.3807 252.899 80.6473 256.733 83.0473 262.733C85.4473 268.733 88.0473 274.233 89.0473 276.233C90.714 279.066 94.5473 285.333 96.5473 287.733C98.5473 290.133 100.047 291.733 100.547 292.233C101.714 293.399 105.047 296.133 109.047 297.733C113.047 299.333 120.047 300.733 123.047 301.233C124.714 301.566 129.647 302.133 136.047 301.733C142.447 301.333 148.381 300.233 150.547 299.733C151.881 299.566 156.247 298.333 163.047 294.733C169.847 291.133 176.547 282.899 179.047 279.233L186.047 269.733L192.047 261.233C193.214 259.233 196.347 254.533 199.547 251.733C202.747 248.933 205.881 247.566 207.047 247.233L214.547 244.733C217.047 243.899 223.547 241.533 229.547 238.733C235.547 235.933 238.381 232.566 239.047 231.233C239.214 231.066 239.847 229.233 241.047 223.233C242.247 217.233 241.881 213.066 241.547 211.733C240.881 209.066 239.147 203.133 237.547 200.733C235.947 198.333 233.214 196.733 232.047 196.233C228.214 194.733 219.647 191.433 216.047 190.233C212.447 189.033 206.214 188.066 203.547 187.733C201.714 187.566 197.547 187.133 195.547 186.733C193.547 186.333 190.047 185.233 188.547 184.733C186.714 184.066 181.247 182.133 174.047 179.733C166.847 177.333 160.047 181.399 157.547 183.733C156.547 184.733 153.047 188.033 147.047 193.233Z" fill="#BC4F4F"/>
<path d="M316.472 81.5718C302.072 79.1718 288.472 84.9051 283.472 88.0718C281.472 88.5718 276.672 89.5718 273.472 89.5718C270.272 89.5718 266.472 90.5718 264.972 91.0718C261.806 91.7384 253.972 94.4718 247.972 100.072C241.972 105.672 239.139 113.072 238.472 116.072C237.639 118.905 236.272 127.072 237.472 137.072C238.672 147.072 245.306 156.572 248.472 160.072C253.472 164.905 266.572 176.672 278.972 185.072C294.472 195.572 303.472 196.572 316.972 201.072C330.472 205.572 338.972 205.072 350.472 206.572C359.672 207.772 371.972 207.072 376.972 206.572C378.472 206.738 383.172 206.072 389.972 202.072C396.772 198.072 398.806 190.072 398.972 186.572C399.306 185.905 399.472 182.572 397.472 174.572C395.472 166.572 388.639 161.572 385.472 160.072C380.306 157.405 368.272 151.372 361.472 148.572C354.672 145.772 350.639 142.072 349.472 140.572C349.139 140.405 347.172 138.172 341.972 130.572C336.772 122.972 335.806 115.072 335.972 112.072C335.472 102.905 330.872 83.9718 316.472 81.5718Z" fill="#EDAC55"/>
<path d="M47 0.168239C32.6 0.568239 17 11.1682 12.5 18.6682C10.6667 21.6683 6.6 29.0683 5 34.6683C3 41.6683 1.5 52.1683 1 58.6683C0.6 63.8683 0.166667 68.8349 0 70.6683V81.6683C0 84.8683 1.33333 88.3349 2 89.6683C2.33333 90.1683 4.1 91.9683 8.5 95.1683C14 99.1683 23.5 99.1683 29 99.6683C34.5 100.168 41.5 100.168 48.5 101.668C55.5 103.168 61 103.168 69.5 103.668C78 104.168 87 102.668 90.5 103.168C93.3 103.568 100.667 102.335 104 101.668C106.333 101.002 111.6 99.1683 114 97.1683C116.4 95.1683 117.333 91.3349 117.5 89.6683L118.5 84.6683C118.667 82.6683 119.1 77.7683 119.5 74.1683C119.9 70.5683 118.333 66.6683 117.5 65.1683C116.667 63.6683 115 59.8683 115 56.6683C115.8 50.2683 115.333 41.3349 115 37.6683C113.8 28.8683 109 23.6683 104 18.6682C98.5 11.1682 91 7.16825 80.5 3.16824C72.6414 0.174481 55 -0.331761 47 0.168239Z" fill="#C4A580"/>
<path d="M89.24 33.28H156.44V47.2H89.24V33.28ZM92.72 70.72H152.6V84.52H92.72V70.72ZM84.56 111.4H160.4V125.32H84.56V111.4ZM63.92 54.4L77.96 40.24L78.2 40.48V131.56H63.92V54.4ZM75.92 19.72L89.72 24.28C81.44 45.28 67.64 67.24 53.6 81.04C52.16 77.56 47.84 69.76 45.32 66.28C57.44 55.12 68.96 37.48 75.92 19.72ZM221.72 38.32H285.08V53.68H221.72V38.32ZM215.12 109.24H289.76V124.6H215.12V109.24ZM193.52 54.4L207.8 40.12L208.04 40.36V131.56H193.52V54.4ZM205.52 19.6L219.8 24.16C211.4 45.16 197.96 67.36 183.92 81.28C182.48 77.68 178.16 69.64 175.52 66.04C187.4 54.88 198.8 37.48 205.52 19.6ZM333.657 114.73C333.626 115.527 333.509 116.312 333.305 117.086C333.102 117.859 332.794 118.559 332.38 119.184C331.973 119.809 331.454 120.309 330.821 120.684C330.188 121.059 329.423 121.246 328.524 121.246C328.016 121.246 327.559 121.156 327.153 120.977C326.747 120.797 326.403 120.543 326.122 120.215C325.841 119.879 325.634 119.477 325.501 119.008C325.368 118.539 325.321 118.012 325.36 117.426L325.958 110.676H328.302L327.716 117.426C327.669 117.832 327.673 118.164 327.727 118.422C327.79 118.68 327.884 118.879 328.009 119.02C328.141 119.16 328.29 119.262 328.454 119.324C328.626 119.379 328.794 119.406 328.958 119.406C329.333 119.406 329.677 119.289 329.989 119.055C330.302 118.82 330.571 118.496 330.798 118.082C331.024 117.668 331.204 117.184 331.337 116.629C331.47 116.066 331.544 115.461 331.559 114.812C331.614 113.773 331.563 112.812 331.407 111.93C331.259 111.047 331.001 110.258 330.634 109.562C330.274 108.859 329.805 108.266 329.227 107.781C328.649 107.289 327.962 106.914 327.165 106.656C326.368 106.391 325.458 106.258 324.434 106.258C323.473 106.258 322.587 106.406 321.774 106.703C320.97 107 320.247 107.426 319.606 107.98C318.973 108.535 318.427 109.199 317.966 109.973C317.513 110.738 317.153 111.594 316.888 112.539C316.63 113.477 316.477 114.484 316.43 115.562C316.376 116.695 316.434 117.727 316.606 118.656C316.786 119.586 317.071 120.402 317.462 121.105C317.86 121.816 318.356 122.41 318.95 122.887C319.544 123.363 320.235 123.723 321.024 123.965C321.813 124.207 322.692 124.328 323.661 124.328C324.341 124.328 325.032 124.25 325.735 124.094C326.446 123.945 327.044 123.754 327.528 123.52L327.973 125.266C327.427 125.617 326.743 125.879 325.923 126.051C325.11 126.223 324.341 126.309 323.614 126.309C322.372 126.309 321.239 126.156 320.216 125.852C319.2 125.555 318.302 125.109 317.52 124.516C316.739 123.93 316.087 123.203 315.563 122.336C315.048 121.469 314.665 120.469 314.415 119.336C314.173 118.203 314.079 116.945 314.134 115.562C314.188 114.281 314.388 113.074 314.731 111.941C315.075 110.809 315.544 109.781 316.138 108.859C316.731 107.938 317.442 107.145 318.27 106.48C319.106 105.809 320.044 105.293 321.083 104.934C322.122 104.574 323.255 104.395 324.481 104.395C325.7 104.395 326.805 104.555 327.798 104.875C328.798 105.195 329.673 105.656 330.423 106.258C331.173 106.852 331.798 107.574 332.298 108.426C332.798 109.27 333.161 110.223 333.388 111.285C333.614 112.348 333.704 113.496 333.657 114.73ZM321.821 115.961C321.782 116.477 321.786 116.934 321.833 117.332C321.88 117.73 321.97 118.066 322.102 118.34C322.235 118.613 322.407 118.82 322.618 118.961C322.837 119.094 323.095 119.16 323.391 119.16C323.555 119.16 323.735 119.121 323.93 119.043C324.126 118.957 324.325 118.816 324.528 118.621C324.731 118.426 324.923 118.156 325.102 117.812C325.29 117.461 325.446 117.02 325.571 116.488L326.567 117.672C326.388 118.258 326.165 118.773 325.899 119.219C325.634 119.656 325.329 120.023 324.985 120.32C324.649 120.617 324.282 120.84 323.884 120.988C323.485 121.137 323.055 121.211 322.595 121.211C322.024 121.211 321.516 121.09 321.071 120.848C320.626 120.598 320.255 120.242 319.958 119.781C319.661 119.32 319.446 118.77 319.313 118.129C319.188 117.48 319.165 116.758 319.243 115.961C319.329 115.164 319.485 114.426 319.712 113.746C319.938 113.066 320.22 112.461 320.555 111.93C320.891 111.391 321.274 110.934 321.704 110.559C322.141 110.176 322.614 109.887 323.122 109.691C323.63 109.496 324.161 109.398 324.716 109.398C325.614 109.398 326.321 109.527 326.837 109.785C327.352 110.043 327.841 110.34 328.302 110.676L327.106 112.281C326.88 112.078 326.583 111.883 326.216 111.695C325.856 111.5 325.427 111.402 324.927 111.402C324.466 111.402 324.059 111.5 323.708 111.695C323.364 111.891 323.063 112.184 322.805 112.574C322.555 112.957 322.348 113.434 322.184 114.004C322.02 114.566 321.899 115.219 321.821 115.961ZM339.364 111.086V121H335.989V108.32H339.165L339.364 111.086ZM343.184 108.238L343.126 111.367C342.962 111.344 342.763 111.324 342.528 111.309C342.302 111.285 342.095 111.273 341.907 111.273C341.43 111.273 341.016 111.336 340.665 111.461C340.321 111.578 340.032 111.754 339.798 111.988C339.571 112.223 339.399 112.508 339.282 112.844C339.173 113.18 339.11 113.562 339.095 113.992L338.415 113.781C338.415 112.961 338.497 112.207 338.661 111.52C338.825 110.824 339.063 110.219 339.376 109.703C339.696 109.188 340.087 108.789 340.548 108.508C341.009 108.227 341.536 108.086 342.13 108.086C342.317 108.086 342.509 108.102 342.704 108.133C342.899 108.156 343.059 108.191 343.184 108.238ZM350.38 121.234C349.395 121.234 348.513 121.078 347.731 120.766C346.95 120.445 346.286 120.004 345.739 119.441C345.2 118.879 344.786 118.227 344.497 117.484C344.208 116.734 344.063 115.938 344.063 115.094V114.625C344.063 113.664 344.2 112.785 344.473 111.988C344.747 111.191 345.138 110.5 345.645 109.914C346.161 109.328 346.786 108.879 347.52 108.566C348.255 108.246 349.083 108.086 350.005 108.086C350.903 108.086 351.7 108.234 352.395 108.531C353.091 108.828 353.673 109.25 354.141 109.797C354.618 110.344 354.977 111 355.22 111.766C355.462 112.523 355.583 113.367 355.583 114.297V115.703H345.505V113.453H352.266V113.195C352.266 112.727 352.18 112.309 352.009 111.941C351.845 111.566 351.595 111.27 351.259 111.051C350.923 110.832 350.493 110.723 349.97 110.723C349.524 110.723 349.141 110.82 348.821 111.016C348.501 111.211 348.239 111.484 348.036 111.836C347.841 112.188 347.692 112.602 347.591 113.078C347.497 113.547 347.45 114.062 347.45 114.625V115.094C347.45 115.602 347.52 116.07 347.661 116.5C347.809 116.93 348.016 117.301 348.282 117.613C348.555 117.926 348.884 118.168 349.266 118.34C349.657 118.512 350.098 118.598 350.591 118.598C351.2 118.598 351.766 118.48 352.29 118.246C352.821 118.004 353.278 117.641 353.661 117.156L355.302 118.938C355.036 119.32 354.673 119.688 354.212 120.039C353.759 120.391 353.212 120.68 352.571 120.906C351.93 121.125 351.2 121.234 350.38 121.234ZM364.348 118.141V112.492C364.348 112.086 364.282 111.738 364.149 111.449C364.016 111.152 363.809 110.922 363.528 110.758C363.255 110.594 362.899 110.512 362.462 110.512C362.087 110.512 361.763 110.578 361.489 110.711C361.216 110.836 361.005 111.02 360.856 111.262C360.708 111.496 360.634 111.773 360.634 112.094H357.259C357.259 111.555 357.384 111.043 357.634 110.559C357.884 110.074 358.247 109.648 358.723 109.281C359.2 108.906 359.766 108.613 360.423 108.402C361.087 108.191 361.829 108.086 362.649 108.086C363.634 108.086 364.509 108.25 365.274 108.578C366.04 108.906 366.641 109.398 367.079 110.055C367.524 110.711 367.747 111.531 367.747 112.516V117.941C367.747 118.637 367.79 119.207 367.876 119.652C367.962 120.09 368.087 120.473 368.251 120.801V121H364.841C364.677 120.656 364.552 120.227 364.466 119.711C364.388 119.188 364.348 118.664 364.348 118.141ZM364.794 113.277L364.817 115.188H362.93C362.485 115.188 362.098 115.238 361.77 115.34C361.442 115.441 361.173 115.586 360.962 115.773C360.751 115.953 360.595 116.164 360.493 116.406C360.399 116.648 360.352 116.914 360.352 117.203C360.352 117.492 360.419 117.754 360.552 117.988C360.684 118.215 360.876 118.395 361.126 118.527C361.376 118.652 361.669 118.715 362.005 118.715C362.513 118.715 362.954 118.613 363.329 118.41C363.704 118.207 363.993 117.957 364.196 117.66C364.407 117.363 364.516 117.082 364.524 116.816L365.415 118.246C365.29 118.566 365.118 118.898 364.899 119.242C364.688 119.586 364.419 119.91 364.091 120.215C363.763 120.512 363.368 120.758 362.907 120.953C362.446 121.141 361.899 121.234 361.266 121.234C360.462 121.234 359.731 121.074 359.075 120.754C358.427 120.426 357.911 119.977 357.528 119.406C357.153 118.828 356.966 118.172 356.966 117.438C356.966 116.773 357.091 116.184 357.341 115.668C357.591 115.152 357.958 114.719 358.442 114.367C358.934 114.008 359.548 113.738 360.282 113.559C361.016 113.371 361.868 113.277 362.837 113.277H364.794ZM377.837 118.234V103H381.235V121H378.177L377.837 118.234ZM369.821 114.812V114.566C369.821 113.598 369.93 112.719 370.149 111.93C370.368 111.133 370.688 110.449 371.11 109.879C371.532 109.309 372.052 108.867 372.669 108.555C373.286 108.242 373.989 108.086 374.778 108.086C375.52 108.086 376.169 108.242 376.723 108.555C377.286 108.867 377.763 109.312 378.153 109.891C378.552 110.461 378.872 111.137 379.114 111.918C379.356 112.691 379.532 113.539 379.641 114.461V115C379.532 115.883 379.356 116.703 379.114 117.461C378.872 118.219 378.552 118.883 378.153 119.453C377.763 120.016 377.286 120.453 376.723 120.766C376.161 121.078 375.505 121.234 374.755 121.234C373.966 121.234 373.263 121.074 372.645 120.754C372.036 120.434 371.52 119.984 371.098 119.406C370.684 118.828 370.368 118.148 370.149 117.367C369.93 116.586 369.821 115.734 369.821 114.812ZM373.196 114.566V114.812C373.196 115.336 373.235 115.824 373.313 116.277C373.399 116.73 373.536 117.133 373.723 117.484C373.919 117.828 374.169 118.098 374.473 118.293C374.786 118.48 375.165 118.574 375.61 118.574C376.188 118.574 376.665 118.445 377.04 118.188C377.415 117.922 377.7 117.559 377.895 117.098C378.098 116.637 378.216 116.105 378.247 115.504V113.969C378.223 113.477 378.153 113.035 378.036 112.645C377.927 112.246 377.763 111.906 377.544 111.625C377.333 111.344 377.067 111.125 376.747 110.969C376.434 110.812 376.063 110.734 375.634 110.734C375.196 110.734 374.821 110.836 374.509 111.039C374.196 111.234 373.942 111.504 373.747 111.848C373.559 112.191 373.419 112.598 373.325 113.066C373.239 113.527 373.196 114.027 373.196 114.566ZM389.708 121.234C388.723 121.234 387.841 121.078 387.059 120.766C386.278 120.445 385.614 120.004 385.067 119.441C384.528 118.879 384.114 118.227 383.825 117.484C383.536 116.734 383.391 115.938 383.391 115.094V114.625C383.391 113.664 383.528 112.785 383.802 111.988C384.075 111.191 384.466 110.5 384.973 109.914C385.489 109.328 386.114 108.879 386.848 108.566C387.583 108.246 388.411 108.086 389.333 108.086C390.231 108.086 391.028 108.234 391.723 108.531C392.419 108.828 393.001 109.25 393.47 109.797C393.946 110.344 394.305 111 394.548 111.766C394.79 112.523 394.911 113.367 394.911 114.297V115.703H384.833V113.453H391.595V113.195C391.595 112.727 391.509 112.309 391.337 111.941C391.173 111.566 390.923 111.27 390.587 111.051C390.251 110.832 389.821 110.723 389.298 110.723C388.852 110.723 388.47 110.82 388.149 111.016C387.829 111.211 387.567 111.484 387.364 111.836C387.169 112.188 387.02 112.602 386.919 113.078C386.825 113.547 386.778 114.062 386.778 114.625V115.094C386.778 115.602 386.848 116.07 386.989 116.5C387.138 116.93 387.345 117.301 387.61 117.613C387.884 117.926 388.212 118.168 388.595 118.34C388.985 118.512 389.427 118.598 389.919 118.598C390.528 118.598 391.095 118.48 391.618 118.246C392.149 118.004 392.606 117.641 392.989 117.156L394.63 118.938C394.364 119.32 394.001 119.688 393.54 120.039C393.087 120.391 392.54 120.68 391.899 120.906C391.259 121.125 390.528 121.234 389.708 121.234ZM400.208 111.086V121H396.833V108.32H400.009L400.208 111.086ZM404.028 108.238L403.97 111.367C403.805 111.344 403.606 111.324 403.372 111.309C403.145 111.285 402.938 111.273 402.751 111.273C402.274 111.273 401.86 111.336 401.509 111.461C401.165 111.578 400.876 111.754 400.641 111.988C400.415 112.223 400.243 112.508 400.126 112.844C400.016 113.18 399.954 113.562 399.938 113.992L399.259 113.781C399.259 112.961 399.341 112.207 399.505 111.52C399.669 110.824 399.907 110.219 400.22 109.703C400.54 109.188 400.93 108.789 401.391 108.508C401.852 108.227 402.38 108.086 402.973 108.086C403.161 108.086 403.352 108.102 403.548 108.133C403.743 108.156 403.903 108.191 404.028 108.238ZM403.934 119.371C403.934 118.871 404.106 118.453 404.45 118.117C404.802 117.781 405.266 117.613 405.845 117.613C406.423 117.613 406.884 117.781 407.227 118.117C407.579 118.453 407.755 118.871 407.755 119.371C407.755 119.871 407.579 120.289 407.227 120.625C406.884 120.961 406.423 121.129 405.845 121.129C405.266 121.129 404.802 120.961 404.45 120.625C404.106 120.289 403.934 119.871 403.934 119.371ZM416.942 108.32V110.711H409.559V108.32H416.942ZM411.388 105.191H414.763V117.18C414.763 117.547 414.809 117.828 414.903 118.023C415.005 118.219 415.153 118.355 415.348 118.434C415.544 118.504 415.79 118.539 416.087 118.539C416.298 118.539 416.485 118.531 416.649 118.516C416.821 118.492 416.966 118.469 417.083 118.445L417.095 120.93C416.805 121.023 416.493 121.098 416.157 121.152C415.821 121.207 415.45 121.234 415.044 121.234C414.302 121.234 413.653 121.113 413.098 120.871C412.552 120.621 412.13 120.223 411.833 119.676C411.536 119.129 411.388 118.41 411.388 117.52V105.191ZM422.239 111.086V121H418.864V108.32H422.04L422.239 111.086ZM426.059 108.238L426.001 111.367C425.837 111.344 425.638 111.324 425.403 111.309C425.177 111.285 424.97 111.273 424.782 111.273C424.305 111.273 423.891 111.336 423.54 111.461C423.196 111.578 422.907 111.754 422.673 111.988C422.446 112.223 422.274 112.508 422.157 112.844C422.048 113.18 421.985 113.562 421.97 113.992L421.29 113.781C421.29 112.961 421.372 112.207 421.536 111.52C421.7 110.824 421.938 110.219 422.251 109.703C422.571 109.188 422.962 108.789 423.423 108.508C423.884 108.227 424.411 108.086 425.005 108.086C425.192 108.086 425.384 108.102 425.579 108.133C425.774 108.156 425.934 108.191 426.059 108.238ZM431.216 108.32V121H427.829V108.32H431.216ZM427.618 105.016C427.618 104.523 427.79 104.117 428.134 103.797C428.477 103.477 428.938 103.316 429.516 103.316C430.087 103.316 430.544 103.477 430.888 103.797C431.239 104.117 431.415 104.523 431.415 105.016C431.415 105.508 431.239 105.914 430.888 106.234C430.544 106.555 430.087 106.715 429.516 106.715C428.938 106.715 428.477 106.555 428.134 106.234C427.79 105.914 427.618 105.508 427.618 105.016ZM437.38 110.758V125.875H434.005V108.32H437.134L437.38 110.758ZM445.407 114.52V114.766C445.407 115.688 445.298 116.543 445.079 117.332C444.868 118.121 444.555 118.809 444.141 119.395C443.727 119.973 443.212 120.426 442.595 120.754C441.985 121.074 441.282 121.234 440.485 121.234C439.712 121.234 439.04 121.078 438.47 120.766C437.899 120.453 437.419 120.016 437.028 119.453C436.645 118.883 436.337 118.223 436.102 117.473C435.868 116.723 435.688 115.918 435.563 115.059V114.414C435.688 113.492 435.868 112.648 436.102 111.883C436.337 111.109 436.645 110.441 437.028 109.879C437.419 109.309 437.895 108.867 438.458 108.555C439.028 108.242 439.696 108.086 440.462 108.086C441.266 108.086 441.973 108.238 442.583 108.543C443.2 108.848 443.716 109.285 444.13 109.855C444.552 110.426 444.868 111.105 445.079 111.895C445.298 112.684 445.407 113.559 445.407 114.52ZM442.02 114.766V114.52C442.02 113.98 441.973 113.484 441.88 113.031C441.794 112.57 441.653 112.168 441.458 111.824C441.27 111.48 441.02 111.215 440.708 111.027C440.403 110.832 440.032 110.734 439.595 110.734C439.134 110.734 438.739 110.809 438.411 110.957C438.091 111.105 437.829 111.32 437.626 111.602C437.423 111.883 437.27 112.219 437.169 112.609C437.067 113 437.005 113.441 436.981 113.934V115.562C437.02 116.141 437.13 116.66 437.309 117.121C437.489 117.574 437.766 117.934 438.141 118.199C438.516 118.465 439.009 118.598 439.618 118.598C440.063 118.598 440.438 118.5 440.743 118.305C441.048 118.102 441.294 117.824 441.481 117.473C441.677 117.121 441.813 116.715 441.891 116.254C441.977 115.793 442.02 115.297 442.02 114.766ZM451.067 103V121H447.68V103H451.067ZM459.692 121.234C458.708 121.234 457.825 121.078 457.044 120.766C456.263 120.445 455.598 120.004 455.052 119.441C454.513 118.879 454.098 118.227 453.809 117.484C453.52 116.734 453.376 115.938 453.376 115.094V114.625C453.376 113.664 453.513 112.785 453.786 111.988C454.059 111.191 454.45 110.5 454.958 109.914C455.473 109.328 456.098 108.879 456.833 108.566C457.567 108.246 458.395 108.086 459.317 108.086C460.216 108.086 461.013 108.234 461.708 108.531C462.403 108.828 462.985 109.25 463.454 109.797C463.93 110.344 464.29 111 464.532 111.766C464.774 112.523 464.895 113.367 464.895 114.297V115.703H454.817V113.453H461.579V113.195C461.579 112.727 461.493 112.309 461.321 111.941C461.157 111.566 460.907 111.27 460.571 111.051C460.235 110.832 459.805 110.723 459.282 110.723C458.837 110.723 458.454 110.82 458.134 111.016C457.813 111.211 457.552 111.484 457.348 111.836C457.153 112.188 457.005 112.602 456.903 113.078C456.809 113.547 456.763 114.062 456.763 114.625V115.094C456.763 115.602 456.833 116.07 456.973 116.5C457.122 116.93 457.329 117.301 457.595 117.613C457.868 117.926 458.196 118.168 458.579 118.34C458.97 118.512 459.411 118.598 459.903 118.598C460.513 118.598 461.079 118.48 461.602 118.246C462.134 118.004 462.591 117.641 462.973 117.156L464.614 118.938C464.348 119.32 463.985 119.688 463.524 120.039C463.071 120.391 462.524 120.68 461.884 120.906C461.243 121.125 460.513 121.234 459.692 121.234ZM63.27 169.382L72.946 172.17C68.436 181.272 61.138 190.128 54.25 195.54C52.446 193.736 48.51 190.62 46.214 189.144C53.102 184.552 59.662 177.008 63.27 169.382ZM62.614 177.992H119.112V186.684H60.236L62.614 177.992ZM47.936 197.098H122.064V205.872H47.936V197.098ZM49.33 216.368H120.916V225.142H49.33V216.368ZM73.602 181.108H81.884V220.96H73.602V181.108ZM59.088 181.108H67.78V221.042H59.088V181.108ZM87.87 181.108H96.07V221.042H87.87V181.108ZM102.302 181.108H111.322V221.042H102.302V181.108ZM71.142 229.734L80.244 228.668C81.31 233.67 82.294 240.148 82.376 244.166L72.7 245.56C72.7 241.542 72.126 234.818 71.142 229.734ZM87.46 229.898L96.726 228.34C98.776 233.178 100.826 239.656 101.564 243.674L91.724 245.642C91.15 241.624 89.346 234.982 87.46 229.898ZM103.778 229.488L113.208 226.536C116.898 231.538 121.572 238.508 123.622 243.1L113.618 246.462C111.814 241.952 107.468 234.736 103.778 229.488ZM56.382 226.864L65.976 229.16C64.09 235.474 60.564 242.198 56.628 246.462L47.116 242.69C50.888 239.246 54.496 232.85 56.382 226.864ZM136.988 174.302H210.296V182.912H136.988V174.302ZM155.028 169.382H165.032V187.832H155.028V169.382ZM182.252 169.382H192.338V186.766H182.252V169.382ZM137.07 216.532H210.296V225.224H137.07V216.532ZM168.23 211.038H178.562V246.38H168.23V211.038ZM165.524 220.468L173.56 224.076C166.016 233.178 153.47 240.804 141.252 244.658C139.776 242.116 136.742 238.098 134.528 236.048C146.418 233.178 159.046 227.192 165.524 220.468ZM181.268 221.124C187.664 227.848 199.964 233.342 212.018 235.884C209.886 237.934 206.852 241.87 205.458 244.494C193.24 240.886 181.104 233.424 173.806 224.24L181.268 221.124ZM198.652 185.454L206.442 193.162C188.402 197.262 162.818 198.82 141.252 198.902C141.006 196.524 139.94 192.588 139.038 190.456C160.194 190.21 184.63 188.57 198.652 185.454ZM142.564 202.756L150.764 199.476C153.716 203.002 156.75 207.758 157.898 211.202L149.124 214.728C148.14 211.448 145.352 206.446 142.564 202.756ZM165.442 200.87L174.052 198.082C176.102 201.362 178.234 205.544 178.808 208.578L169.706 211.612C169.214 208.742 167.41 204.232 165.442 200.87ZM196.438 196.196L206.524 199.722C202.998 205.134 199.144 210.874 196.11 214.564L188.402 211.284C191.19 207.266 194.634 200.87 196.438 196.196ZM256.626 196.77H266.876V246.38H256.626V196.77ZM242.85 211.284V215.712H281.636V211.284H242.85ZM242.85 199.886V204.232H281.636V199.886H242.85ZM233.174 192.342H291.722V223.256H233.174V192.342ZM225.466 227.52H298.938V235.966H225.466V227.52ZM238.996 178.484V183.24H250.558V178.484H238.996ZM230.222 172.58H259.742V189.062H230.222V172.58ZM273.354 178.484V183.24H285.162V178.484H273.354ZM264.662 172.58H294.346V189.062H264.662V172.58ZM323.948 219.894H378.56V246.544H368.638V226.044H333.46V246.626H323.948V219.894ZM328.95 229.078H372.164V234.818H328.95V229.078ZM328.95 238.016H372.164V244.248H328.95V238.016ZM345.35 169.136H355.272V214.892H345.35V169.136ZM322.062 174.302H378.15V198.656H321.16V192.916H368.392V180.042H322.062V174.302ZM313.698 182.994H387.662V189.8H313.698V182.994ZM319.356 201.526H381.594V207.512H319.356V201.526ZM313.534 210.464H387.58V217.27H313.534V210.464ZM444.734 197.262H475.73V205.954H444.734V197.262ZM427.186 234.736H465.726V243.428H427.186V234.736ZM440.06 189.554H450.064V219.976H440.06V189.554ZM422.02 214.892H470.974V246.298H460.888V223.584H431.614V246.38H422.02V214.892ZM436.698 169.382H446.948V184.306H436.698V169.382ZM412.098 178.976H476.878V188.324H412.098V178.976ZM407.26 178.976H417.1V199.722C417.1 213.006 415.87 233.342 408.408 246.216C406.604 244.576 402.258 241.706 399.88 240.722C406.768 228.914 407.26 211.612 407.26 199.722V178.976Z" fill="black"/>
<path d="M321 36L348 77.5M321 36C322.833 34 329.6 28.6 342 23C354.4 17.4 365.833 22.3333 370 25.5M321 36C319.7 38.8166 319.124 40.978 318.922 42.5M348 77.5C351.667 74.8333 361.8 68.7 373 65.5C387 61.5 402 64 405.5 65.5M348 77.5V90.5M405.5 65.5C399.5 69.5 398.667 69.8333 399 69.5C390 70.6667 367.2 76.5 348 90.5M405.5 65.5H416C421 62 437 55.6 461 58C460.523 54.1868 460.141 51.3675 459.875 49.5M405.5 65.5L370 25.5M405.5 65.5C407.333 59 420.7 46.2 459.5 47M348 90.5C336.4 72.5 323.833 52.6667 319 45C318.847 44.618 318.75 43.7879 318.922 42.5M459.5 47L415 14C412 15.3333 403.1 17.6 391.5 16C379.9 14.4 372.333 21.6667 370 25.5M459.5 47C459.567 47.4042 459.695 48.2331 459.875 49.5M318.922 42.5C317.948 42.6667 315.6 43.4 314 45L346 95.5C356.5 87.6667 383.4 72.3 407 73.5C409 73.5 410.5 73.5 411 73.5C414.833 68.5 431.7 59.2 468.5 62C464.9 56.4 461.25 51.3333 459.875 49.5" stroke="black" stroke-width="2.5"/>
</svg>
