<svg width="1019" height="304" viewBox="0 0 1019 304" fill="none" xmlns="http://www.w3.org/2000/svg">
<path d="M221 48.5781C211 54.9781 205.833 72.9114 204.5 81.0781L202 101.078V115.078C202 117.578 202.2 122.978 203 124.578C203.8 126.178 206 128.578 207 129.578L210 131.578L212 132.578L214 133.578L217 134.578L220.5 135.078L225 135.578L228 136.078L232 136.578L236 137.078L241 137.578L245 138.078L249.5 138.578L256.5 139.578C262.167 140.078 274.2 141.078 277 141.078C279.8 141.078 290.5 140.411 295.5 140.078H298.5L302.5 139.578L306.5 138.578L310 137.578L311.5 136.578L313.5 135.578L315.5 134.578L317 133.578L318.5 132.078L319 131.078L319.5 129.578V127.078L320 123.578L320.5 121.078L321 118.578L321.5 108.078V107.078L321 105.578L320.5 104.078L319.5 102.078L318.5 100.078L317.5 97.0781L317 94.5781L317.5 87.5781C317.333 83.7448 316.9 75.2781 316.5 72.0781C316.1 68.8781 313 63.4115 311.5 61.0781C308.333 57.5781 301.3 50.1781 298.5 48.5781C295.7 46.9781 290.333 44.2448 288 43.0781C286.667 42.4115 283.5 40.8781 281.5 40.0781C279.5 39.2781 277.333 38.7448 276.5 38.5781C271.833 37.9114 260.2 36.6781 251 37.0781C239.5 37.5781 233.5 40.5781 221 48.5781Z" fill="#C4A580"/>
<path d="M536.582 156.5C527.382 165.7 513.748 169.333 508.082 170L506.582 170.5L504.582 171L502.582 171.5L500.082 172L498.082 172.5C496.915 173.333 493.482 174.9 489.082 174.5C484.682 174.1 477.248 176.667 474.082 178C471.748 181.167 466.882 190.1 466.082 200.5C465.082 213.5 473.582 229.5 474.082 231.5C474.582 233.5 484.082 257 499.082 262C514.082 267 525.082 266.5 539.582 263.5C551.182 261.1 560.748 252.5 564.082 248.5L567.082 244.5L570.082 240.5L573.082 237L576.582 231.5L579.582 227L582.082 223.5L584.582 219.5L587.082 217L589.082 215L591.082 213.5L593.582 212L597.582 210.5L600.582 209.5C608.748 207 625.682 200.6 628.082 195C630.482 189.4 630.748 179.667 630.582 175.5C629.748 171.5 627.182 163 623.582 161C619.982 159 612.748 156.5 609.582 155.5L605.082 154H600.582L597.582 152.5L592.582 151.5C590.748 151.167 586.882 150.5 586.082 150.5C585.282 150.5 582.082 149.833 580.582 149.5L575.582 148L571.082 146.5L567.082 145L564.082 144H561.582L558.582 143H555.582H553.582L551.582 144C550.415 144.333 545.782 147.3 536.582 156.5Z" fill="#BC4F4F"/>
<path d="M835.563 59.5L829.563 62.5L827.063 63L824.063 63.5L820.063 64L815.063 65L812.063 65.5L809.563 66C803.896 67.8333 791.563 73.7 787.563 82.5C783.563 91.3 782.896 100.5 783.063 104C782.729 108.667 783.563 120.1 789.563 128.5C795.563 136.9 804.729 144.667 808.563 147.5L811.563 149.5L814.563 152L817.563 154.5L821.063 157L824.063 159L826.563 161L830.063 163.5L834.063 165.5L838.563 167.5L843.063 169C847.563 170.833 858.763 175 867.563 177C876.363 179 881.229 179.833 882.563 180C888.063 180.667 900.863 182 908.063 182C915.263 182 924.063 181 927.563 180.5C931.063 179.167 938.763 175.5 941.563 171.5C944.363 167.5 945.063 161.167 945.063 158.5C945.063 156.167 944.463 150.1 942.063 144.5C939.663 138.9 933.729 135.167 931.063 134L927.563 132L924.063 130.5L920.563 129.5L917.063 127.5L914.063 126L911.063 124.5L908.063 123.5L905.563 122L902.063 120L899.063 118L896.563 116L894.063 113.5L891.063 110L888.063 105L886.063 100L884.063 95.5L882.563 90.5L881.563 86C881.729 83 881.263 75.4 878.063 69C874.863 62.6 866.729 57.6667 863.063 56H848.063L843.063 57L835.563 59.5Z" fill="#EDAC55"/>
<path d="M310.24 97.28H377.44V111.2H310.24V97.28ZM313.72 134.72H373.6V148.52H313.72V134.72ZM305.56 175.4H381.4V189.32H305.56V175.4ZM284.92 118.4L298.96 104.24L299.2 104.48V195.56H284.92V118.4ZM296.92 83.72L310.72 88.28C302.44 109.28 288.64 131.24 274.6 145.04C273.16 141.56 268.84 133.76 266.32 130.28C278.44 119.12 289.96 101.48 296.92 83.72ZM442.72 102.32H506.08V117.68H442.72V102.32ZM436.12 173.24H510.76V188.6H436.12V173.24ZM414.52 118.4L428.8 104.12L429.04 104.36V195.56H414.52V118.4ZM426.52 83.6L440.8 88.16C432.4 109.16 418.96 131.36 404.92 145.28C403.48 141.68 399.16 133.64 396.52 130.04C408.4 118.88 419.8 101.48 426.52 83.6ZM550.05 115.382L559.726 118.17C555.216 127.272 547.918 136.128 541.03 141.54C539.226 139.736 535.29 136.62 532.994 135.144C539.882 130.552 546.442 123.008 550.05 115.382ZM549.394 123.992H605.892V132.684H547.016L549.394 123.992ZM534.716 143.098H608.844V151.872H534.716V143.098ZM536.11 162.368H607.696V171.142H536.11V162.368ZM560.382 127.108H568.664V166.96H560.382V127.108ZM545.868 127.108H554.56V167.042H545.868V127.108ZM574.65 127.108H582.85V167.042H574.65V127.108ZM589.082 127.108H598.102V167.042H589.082V127.108ZM557.922 175.734L567.024 174.668C568.09 179.67 569.074 186.148 569.156 190.166L559.48 191.56C559.48 187.542 558.906 180.818 557.922 175.734ZM574.24 175.898L583.506 174.34C585.556 179.178 587.606 185.656 588.344 189.674L578.504 191.642C577.93 187.624 576.126 180.982 574.24 175.898ZM590.558 175.488L599.988 172.536C603.678 177.538 608.352 184.508 610.402 189.1L600.398 192.462C598.594 187.952 594.248 180.736 590.558 175.488ZM543.162 172.864L552.756 175.16C550.87 181.474 547.344 188.198 543.408 192.462L533.896 188.69C537.668 185.246 541.276 178.85 543.162 172.864ZM623.768 120.302H697.076V128.912H623.768V120.302ZM641.808 115.382H651.812V133.832H641.808V115.382ZM669.032 115.382H679.118V132.766H669.032V115.382ZM623.85 162.532H697.076V171.224H623.85V162.532ZM655.01 157.038H665.342V192.38H655.01V157.038ZM652.304 166.468L660.34 170.076C652.796 179.178 640.25 186.804 628.032 190.658C626.556 188.116 623.522 184.098 621.308 182.048C633.198 179.178 645.826 173.192 652.304 166.468ZM668.048 167.124C674.444 173.848 686.744 179.342 698.798 181.884C696.666 183.934 693.632 187.87 692.238 190.494C680.02 186.886 667.884 179.424 660.586 170.24L668.048 167.124ZM685.432 131.454L693.222 139.162C675.182 143.262 649.598 144.82 628.032 144.902C627.786 142.524 626.72 138.588 625.818 136.456C646.974 136.21 671.41 134.57 685.432 131.454ZM629.344 148.756L637.544 145.476C640.496 149.002 643.53 153.758 644.678 157.202L635.904 160.728C634.92 157.448 632.132 152.446 629.344 148.756ZM652.222 146.87L660.832 144.082C662.882 147.362 665.014 151.544 665.588 154.578L656.486 157.612C655.994 154.742 654.19 150.232 652.222 146.87ZM683.218 142.196L693.304 145.722C689.778 151.134 685.924 156.874 682.89 160.564L675.182 157.284C677.97 153.266 681.414 146.87 683.218 142.196ZM743.406 142.77H753.656V192.38H743.406V142.77ZM729.63 157.284V161.712H768.416V157.284H729.63ZM729.63 145.886V150.232H768.416V145.886H729.63ZM719.954 138.342H778.502V169.256H719.954V138.342ZM712.246 173.52H785.718V181.966H712.246V173.52ZM725.776 124.484V129.24H737.338V124.484H725.776ZM717.002 118.58H746.522V135.062H717.002V118.58ZM760.134 124.484V129.24H771.942V124.484H760.134ZM751.442 118.58H781.126V135.062H751.442V118.58ZM810.728 165.894H865.34V192.544H855.418V172.044H820.24V192.626H810.728V165.894ZM815.73 175.078H858.944V180.818H815.73V175.078ZM815.73 184.016H858.944V190.248H815.73V184.016ZM832.13 115.136H842.052V160.892H832.13V115.136ZM808.842 120.302H864.93V144.656H807.94V138.916H855.172V126.042H808.842V120.302ZM800.478 128.994H874.442V135.8H800.478V128.994ZM806.136 147.526H868.374V153.512H806.136V147.526ZM800.314 156.464H874.36V163.27H800.314V156.464ZM931.514 143.262H962.51V151.954H931.514V143.262ZM913.966 180.736H952.506V189.428H913.966V180.736ZM926.84 135.554H936.844V165.976H926.84V135.554ZM908.8 160.892H957.754V192.298H947.668V169.584H918.394V192.38H908.8V160.892ZM923.478 115.382H933.728V130.306H923.478V115.382ZM898.878 124.976H963.658V134.324H898.878V124.976ZM894.04 124.976H903.88V145.722C903.88 159.006 902.65 179.342 895.188 192.216C893.384 190.576 889.038 187.706 886.66 186.722C893.548 174.914 894.04 157.612 894.04 145.722V124.976Z" fill="black"/>
<path d="M56.0162 126.344L90.7929 179.81M56.0162 126.344C58.3776 123.767 67.0932 116.81 83.0647 109.595C99.0362 102.38 113.763 108.736 119.129 112.816M56.0162 126.344C54.3418 129.972 53.5995 132.757 53.3391 134.718M90.7929 179.81C95.5156 176.374 108.568 168.472 122.994 164.35C141.026 159.196 160.346 162.417 164.854 164.35M90.7929 179.81V196.558M164.854 164.35C157.126 169.503 156.053 169.933 156.482 169.503C144.89 171.006 115.523 178.521 90.7929 196.558M164.854 164.35H178.379C184.819 159.84 205.427 151.595 236.34 154.687C235.726 149.774 235.234 146.142 234.891 143.736M164.854 164.35L119.129 112.816M164.854 164.35C167.216 155.975 184.432 139.485 234.408 140.515M90.7929 196.558C75.8518 173.368 59.6656 147.816 53.4401 137.939C53.2433 137.447 53.1187 136.377 53.3391 134.718M234.408 140.515L177.091 98C173.227 99.7178 161.763 102.638 146.822 100.577C131.881 98.5153 122.135 107.877 119.129 112.816M234.408 140.515C234.495 141.036 234.658 142.104 234.891 143.736M53.3391 134.718C52.0847 134.933 49.0608 135.877 47 137.939L88.2168 203C101.741 192.908 136.389 173.11 166.786 174.656C169.362 174.656 171.294 174.656 171.939 174.656C176.876 168.215 198.601 156.233 246 159.84C241.363 152.626 236.662 146.098 234.891 143.736" stroke="black" stroke-width="4"/>
</svg>
