<svg width="1800" height="600" viewBox="0 0 1800 600" fill="none" xmlns="http://www.w3.org/2000/svg">
<path d="M1470.04 25.3058L1735.58 11L1484.35 77.7603L1470.04 25.3058Z" fill="#7E8E65"/>
<path d="M1686.29 55.5069L1745.12 25.3058L1761.02 150.879L1719.68 160.416L1686.29 55.5069Z" fill="#7E8E65"/>
<path d="M1470.04 77.7603L1446.19 34.843L1357.14 45.9697L1470.04 77.7603Z" fill="#7E8E65"/>
<path d="M1555.9 77.7603L1651.3 55.5069L1644.94 85.708L1584.52 103.193L1555.9 77.7603Z" fill="#7E8E65"/>
<path d="M1708.55 236.714L1671.98 68.2231L1662.43 85.708L1691.06 244.661L1708.55 236.714Z" fill="#7E8E65"/>
<path d="M1719.68 184.259L1761.02 169.953L1784.87 293.937H1735.58L1719.68 184.259Z" fill="#7E8E65"/>
<path d="M1686.29 320.959L1784.87 311.421V354.339L1691.06 373.413L1686.29 320.959Z" fill="#7E8E65"/>
<path d="M1691.06 386.129L1784.87 373.413L1796 397.256L1691.06 386.129Z" fill="#7E8E65"/>
<path d="M1506.61 440.174L1772.15 411.562L1519.33 397.256L1506.61 440.174Z" fill="#7E8E65"/>
<path d="M1651.3 193.796L1648.12 111.14L1584.52 131.804V206.512L1651.3 193.796Z" fill="#7E8E65"/>
<path d="M1616.32 258.967H1708.55L1718.09 301.884L1616.32 311.421V258.967Z" fill="#7E8E65"/>
<path d="M1671.98 386.129L1662.43 320.959L1616.32 332.085L1644.94 386.129H1671.98Z" fill="#7E8E65"/>
<path d="M1584.52 223.997L1671.98 206.512V236.714L1595.65 244.661L1584.52 223.997Z" fill="#7E8E65"/>
<path d="M1236.3 55.5069L1315.8 45.9697V120.678H1247.43L1236.3 55.5069Z" fill="#7E8E65"/>
<path d="M1339.65 68.2231L1411.2 85.708L1427.11 111.14H1339.65V68.2231Z" fill="#7E8E65"/>
<path d="M1571.8 120.678L1536.82 85.708V251.019H1565.44L1571.8 120.678Z" fill="#7E8E65"/>
<path d="M1435.06 77.7603L1519.33 103.193L1506.61 131.804H1446.19L1435.06 77.7603Z" fill="#7E8E65"/>
<path d="M1536.82 274.862L1595.65 258.967V293.937L1536.82 301.884V274.862Z" fill="#7E8E65"/>
<path d="M1555.9 311.421L1595.65 320.959L1622.68 392.488L1555.9 386.129V311.421Z" fill="#7E8E65"/>
<path d="M1427.11 320.959H1544.77L1519.33 344.802H1446.19L1427.11 320.959Z" fill="#7E8E65"/>
<path d="M1484.35 440.174L1503.43 367.055H1411.2L1427.11 440.174H1484.35Z" fill="#7E8E65"/>
<path d="M1519.33 373.413L1536.82 354.339V386.129L1519.33 373.413Z" fill="#7E8E65"/>
<path d="M1506.61 160.416L1525.69 142.931L1519.33 301.884L1506.61 160.416Z" fill="#7E8E65"/>
<path d="M1346.01 120.678L1489.12 155.647L1352.37 152.468L1346.01 120.678Z" fill="#7E8E65"/>
<path d="M1497.07 214.46L1484.35 169.953H1390.53L1377.81 193.796L1497.07 214.46Z" fill="#7E8E65"/>
<path d="M1503.43 311.421L1489.12 230.355L1474.81 239.893L1484.35 311.421H1503.43Z" fill="#7E8E65"/>
<path d="M1470.04 230.355L1435.06 214.46L1427.11 236.714L1470.04 230.355Z" fill="#7E8E65"/>
<path d="M1415.98 249.43L1460.5 251.019L1457.32 279.631L1401.66 284.399L1415.98 249.43Z" fill="#7E8E65"/>
<path d="M1415.98 293.937H1457.32L1452.55 309.832L1415.98 293.937Z" fill="#7E8E65"/>
<path d="M1427.11 354.339L1390.53 293.937L1368.27 360.697L1427.11 354.339Z" fill="#7E8E65"/>
<path d="M1269.69 392.488L1396.89 376.592L1390.53 392.488L1291.95 411.562L1269.69 392.488Z" fill="#7E8E65"/>
<path d="M1411.2 452.89L1404.84 406.793H1384.17L1396.89 452.89H1411.2Z" fill="#7E8E65"/>
<path d="M1217.22 103.193L1210.86 55.5069H1180.65V103.193H1217.22Z" fill="#7E8E65"/>
<path d="M1180.65 169.953L1164.75 55.5069L1144.07 55.5069L1164.75 177.901L1180.65 169.953Z" fill="#7E8E65"/>
<path d="M1062.98 68.2231H1126.58L1131.35 96.8347L1062.98 103.193V68.2231Z" fill="#7E8E65"/>
<path d="M959.627 77.7603L1048.67 85.708L959.627 120.678V77.7603Z" fill="#7E8E65"/>
<path d="M946.907 160.416L934.186 85.708H888.075L856.273 160.416H946.907Z" fill="#7E8E65"/>
<path d="M824.472 92.0661H856.273C850.973 111.67 840.055 151.833 838.783 155.647C837.511 159.462 828.712 114.849 824.472 92.0661Z" fill="#7E8E65"/>
<path d="M1411.2 239.893L1404.84 214.46L1357.14 206.512L1368.27 301.884L1411.2 239.893Z" fill="#7E8E65"/>
<path d="M1373.04 174.722L1317.39 138.163V206.512L1373.04 174.722Z" fill="#7E8E65"/>
<path d="M1191.78 111.14L1296.72 141.342L1282.41 168.364H1196.55L1191.78 111.14Z" fill="#7E8E65"/>
<path d="M1315.8 274.862L1306.26 168.364L1296.72 177.901L1282.41 279.631L1315.8 274.862Z" fill="#7E8E65"/>
<path d="M1322.16 219.229L1346.01 223.997L1352.37 258.967H1328.52L1322.16 219.229Z" fill="#7E8E65"/>
<path d="M1363.5 328.906L1339.65 274.862L1328.52 373.413L1352.37 367.055L1363.5 328.906Z" fill="#7E8E65"/>
<path d="M1223.58 301.884L1322.16 293.937L1317.39 309.832L1236.3 311.421L1223.58 301.884Z" fill="#7E8E65"/>
<path d="M1317.39 376.592L1301.49 325.727L1247.43 332.085L1252.2 382.95L1317.39 376.592Z" fill="#7E8E65"/>
<path d="M1191.78 244.661L1269.69 236.714V284.399L1180.65 293.937L1191.78 244.661Z" fill="#7E8E65"/>
<path d="M1174.29 440.174L1366.68 416.331L1377.81 452.89L1164.75 476.733L1174.29 440.174Z" fill="#7E8E65"/>
<path d="M1007.33 120.678L1131.35 111.14L1144.07 142.931L959.627 160.416L1007.33 120.678Z" fill="#7E8E65"/>
<path d="M1258.56 416.331L1210.86 311.421L1196.55 309.832L1228.35 422.689L1258.56 416.331Z" fill="#7E8E65"/>
<path d="M1223.58 230.355V184.259L1210.86 177.901V230.355H1223.58Z" fill="#7E8E65"/>
<path d="M1241.07 182.669L1269.69 184.259L1282.41 223.997L1236.3 230.355L1241.07 182.669Z" fill="#7E8E65"/>
<path d="M1144.07 193.796L1191.78 184.259L1180.65 258.967L1155.2 279.631L1144.07 193.796Z" fill="#7E8E65"/>
<path d="M1144.07 182.669V160.416H1102.73V193.796L1144.07 182.669Z" fill="#7E8E65"/>
<path d="M905.565 177.901L986.658 182.669L1018.46 239.893L913.516 244.661L905.565 177.901Z" fill="#7E8E65"/>
<path d="M1062.98 360.697L1018.46 169.953L1090.01 160.416L1097.96 355.928L1062.98 360.697Z" fill="#7E8E65"/>
<path d="M1097.96 208.102H1136.12V230.355L1097.96 223.997V208.102Z" fill="#7E8E65"/>
<path d="M1131.35 251.019L1174.29 325.727L1107.5 314.601L1102.73 249.43L1131.35 251.019Z" fill="#7E8E65"/>
<path d="M1115.45 332.085L1191.78 344.802L1196.55 360.697L1115.45 367.055V332.085Z" fill="#7E8E65"/>
<path d="M994.609 373.413L1196.55 376.592L1191.78 392.488L1000.97 397.256L994.609 373.413Z" fill="#7E8E65"/>
<path d="M1164.75 406.793H1210.86V422.689L1166.34 427.457L1164.75 406.793Z" fill="#7E8E65"/>
<path d="M1056.62 406.793L1144.07 411.562L1136.12 476.733L1040.72 489.449L1056.62 406.793Z" fill="#7E8E65"/>
<path d="M1048.67 355.928L1007.33 258.967L986.658 355.928H1048.67Z" fill="#7E8E65"/>
<path d="M795.851 169.953C819.172 174.192 867.086 182.669 872.174 182.669L888.075 206.512L795.851 208.102V169.953Z" fill="#7E8E65"/>
<path d="M888.075 251.019V223.997L795.851 236.714V258.967L888.075 251.019Z" fill="#7E8E65"/>
<path d="M972.348 301.884V266.915H934.186V311.421L972.348 301.884Z" fill="#7E8E65"/>
<path d="M926.236 411.562L913.516 266.915L810.161 301.884V427.457L926.236 411.562Z" fill="#7E8E65"/>
<path d="M946.907 355.928L972.348 328.906L986.658 452.89L934.186 468.785L946.907 355.928Z" fill="#7E8E65"/>
<path d="M1000.97 416.331L1034.36 425.868L1007.33 476.733L1000.97 416.331Z" fill="#7E8E65"/>
<path d="M856.273 476.733L980.298 484.68L856.273 503.755V476.733Z" fill="#7E8E65"/>
<path d="M913.516 468.785V427.457L872.174 440.174V468.785H913.516Z" fill="#7E8E65"/>
<path d="M714.758 111.14L802.211 103.193L816.522 150.879L727.478 168.364L714.758 111.14Z" fill="#7E8E65"/>
<path d="M641.615 120.678L689.317 111.14L714.758 168.364L654.335 177.901L641.615 120.678Z" fill="#7E8E65"/>
<path d="M593.913 193.796L611.404 120.678H555.752V206.512L593.913 193.796Z" fill="#7E8E65"/>
<path d="M654.335 219.229L628.894 152.468L611.404 219.229H654.335Z" fill="#7E8E65"/>
<path d="M668.646 184.259H775.18V223.997L676.596 236.714L668.646 184.259Z" fill="#7E8E65"/>
<path d="M795.851 344.802L775.18 244.661H744.969L751.329 360.697L795.851 344.802Z" fill="#7E8E65"/>
<path d="M744.969 452.89L838.783 440.174V503.755L751.329 518.061L744.969 452.89Z" fill="#7E8E65"/>
<path d="M727.478 376.592L787.901 373.413L795.851 397.256L727.478 397.256V376.592Z" fill="#7E8E65"/>
<path d="M714.758 416.331L787.901 416.331V427.457L727.478 440.174L714.758 416.331Z" fill="#7E8E65"/>
<path d="M727.478 301.884V251.019L668.646 258.967V309.832L727.478 301.884Z" fill="#7E8E65"/>
<path d="M654.335 301.884V239.893L619.354 236.714L628.894 309.832L654.335 301.884Z" fill="#7E8E65"/>
<path d="M703.627 406.793L714.758 328.906L628.894 332.085V427.457L703.627 406.793Z" fill="#7E8E65"/>
<path d="M727.478 462.427L703.627 425.868L676.596 526.008H727.478V462.427Z" fill="#7E8E65"/>
<path d="M628.894 446.532L676.596 440.174L660.696 526.008H628.894V446.532Z" fill="#7E8E65"/>
<path d="M593.913 344.802L585.963 223.997H571.652L585.963 354.339L593.913 344.802Z" fill="#7E8E65"/>
<path d="M492.149 406.793L611.404 376.592V416.331L492.149 446.532V406.793Z" fill="#7E8E65"/>
<path d="M477.839 311.421L555.752 301.884V344.802L492.149 354.339L477.839 311.421Z" fill="#7E8E65"/>
<path d="M411.056 376.592L571.652 367.055L565.292 378.182C517.06 382.95 418.688 392.488 411.056 392.488C403.424 392.488 407.876 381.891 411.056 376.592Z" fill="#7E8E65"/>
<path d="M477.839 131.804C491.619 134.983 522.042 140.706 533.491 138.163L555.752 274.862L463.528 284.399L477.839 131.804Z" fill="#7E8E65"/>
<path d="M533.491 452.89L593.913 446.532L611.404 484.68L533.491 489.449V452.89Z" fill="#7E8E65"/>
<path d="M517.59 518.061C543.031 513.292 597.411 503.755 611.404 503.755V526.008L517.59 540.314V518.061Z" fill="#7E8E65"/>
<path d="M436.497 462.427H506.46L481.019 546.672L436.497 462.427Z" fill="#7E8E65"/>
<path d="M360.174 406.793H463.528L453.988 446.532L371.304 476.733L360.174 406.793Z" fill="#7E8E65"/>
<path d="M364.944 497.397L425.366 489.449L436.497 518.061H364.944V497.397Z" fill="#7E8E65"/>
<path d="M342.683 540.314L436.497 526.008L453.988 546.672L350.634 554.62L342.683 540.314Z" fill="#7E8E65"/>
<path d="M371.304 142.931C393.035 142.401 438.087 140.706 444.447 138.163L463.528 344.802L444.447 360.697L371.304 142.931Z" fill="#7E8E65"/>
<path d="M342.683 309.832L403.106 293.937L425.366 344.802L360.174 373.413L342.683 309.832Z" fill="#7E8E65"/>
<path d="M342.683 484.68L320.422 373.413L274.311 360.697L301.342 518.061L342.683 484.68Z" fill="#7E8E65"/>
<path d="M202.758 564.157L329.963 526.008V564.157H202.758Z" fill="#7E8E65"/>
<path d="M50.1118 588L178.907 572.105L185.267 511.702L40.5714 540.314L50.1118 588Z" fill="#7E8E65"/>
<path d="M193.217 476.733H274.311V518.061L202.758 540.314L193.217 476.733Z" fill="#7E8E65"/>
<path d="M121.665 441.763L264.77 416.331L274.311 452.89L121.665 476.733V441.763Z" fill="#7E8E65"/>
<path d="M134.385 489.449L163.006 484.68L178.907 503.755L134.385 511.702V489.449Z" fill="#7E8E65"/>
<path d="M115.304 508.523L85.0931 406.793L67.6024 370.234L85.0931 518.061L115.304 508.523Z" fill="#7E8E65"/>
<path d="M27.851 386.129H50.1118L67.6024 462.427L40.5714 476.733L27.851 386.129Z" fill="#7E8E65"/>
<path d="M40.5714 497.397H67.6024L40.5714 526.008V497.397Z" fill="#7E8E65"/>
<path d="M15.1304 293.937L85.0931 274.862V344.802L27.851 355.928L15.1304 293.937Z" fill="#7E8E65"/>
<path d="M15.1304 236.714L73.9626 233.534L85.0931 258.967L15.1304 274.862V236.714Z" fill="#7E8E65"/>
<path d="M4 179.49L73.9626 184.259V208.102L15.1304 219.229L4 179.49Z" fill="#7E8E65"/>
<path d="M387.205 271.683L371.304 230.355L342.683 284.399L387.205 271.683Z" fill="#7E8E65"/>
<path d="M264.77 155.647L360.174 160.416L371.304 206.512L288.621 246.251L264.77 155.647Z" fill="#7E8E65"/>
<path d="M264.77 258.967H329.963V279.631L264.77 284.399V258.967Z" fill="#7E8E65"/>
<path d="M264.77 301.884L329.963 309.832V332.085H264.77V301.884Z" fill="#7E8E65"/>
<path d="M178.907 309.832C178.907 306.017 223.429 311.421 245.689 314.601L264.77 386.129L202.758 411.562C194.807 379.241 178.907 313.647 178.907 309.832Z" fill="#7E8E65"/>
<path d="M100.994 394.077C124.845 395.667 175.091 398.528 185.267 397.256V416.331L100.994 427.457V394.077Z" fill="#7E8E65"/>
<path d="M178.907 376.592L163.006 344.802L100.994 354.339L85.0931 376.592H178.907Z" fill="#7E8E65"/>
<path d="M94.6335 223.997L163.006 230.355V320.959L100.994 325.727L94.6335 223.997Z" fill="#7E8E65"/>
<path d="M163.006 206.512V168.364L94.6335 169.953L100.994 206.512H163.006Z" fill="#7E8E65"/>
<path d="M178.907 160.416L255.23 168.364L264.77 219.229L185.267 219.229L178.907 160.416Z" fill="#7E8E65"/>
<path d="M245.689 293.937V239.893L223.429 230.355V292.347L245.689 293.937Z" fill="#7E8E65"/>
<path d="M178.907 239.893L202.758 233.534L210.708 290.758L178.907 292.347V239.893Z" fill="#7E8E65"/>
</svg>
